<svg xmlns="http://www.w3.org/2000/svg" xmlns:xlink="http://www.w3.org/1999/xlink" width="500" zoomAndPan="magnify" viewBox="0 0 375 374.999991" height="500" preserveAspectRatio="xMidYMid meet" version="1.0"><defs><clipPath id="f02b4051f5"><path d="M 365 174 L 368.316406 174 L 368.316406 336 L 365 336 Z M 365 174 " clip-rule="nonzero"/></clipPath><clipPath id="bca21e4449"><path d="M 6.816406 245 L 107 245 L 107 345 L 6.816406 345 Z M 6.816406 245 " clip-rule="nonzero"/></clipPath><clipPath id="7065bba96c"><path d="M 6.816406 0 L 131 0 L 131 237 L 6.816406 237 Z M 6.816406 0 " clip-rule="nonzero"/></clipPath></defs><path fill="#000000" d="M 366.410156 161.347656 L 367.308594 161.347656 L 367.308594 0.136719 L 144.976562 0.136719 L 144.976562 1.035156 L 366.410156 1.035156 Z M 366.410156 161.347656 " fill-opacity="1" fill-rule="nonzero"/><path fill="#000000" d="M 366.410156 373.972656 L 58.238281 373.972656 L 58.238281 344.664062 L 57.339844 344.664062 L 57.339844 374.871094 L 367.308594 374.871094 L 367.308594 348.796875 L 366.410156 348.796875 Z M 366.410156 373.972656 " fill-opacity="1" fill-rule="nonzero"/><path fill="#000000" d="M 336.09375 136.683594 L 269.269531 136.683594 L 236.800781 169.148438 L 236.800781 235.976562 L 237.695312 235.976562 L 238.011719 236.292969 L 238.324219 235.976562 L 303.617188 235.976562 L 336.085938 203.507812 L 336.085938 136.683594 Z M 269.644531 137.578125 L 269.90625 137.578125 L 269.90625 168.878906 L 238.34375 168.878906 Z M 237.964844 235.082031 L 237.707031 235.082031 L 237.707031 169.785156 L 269.90625 169.785156 L 269.90625 203.140625 Z M 303 235.082031 L 239.230469 235.082031 L 270.53125 203.777344 L 302.992188 203.777344 L 302.992188 235.082031 Z M 303 202.882812 L 270.800781 202.882812 L 270.800781 169.785156 L 303 169.785156 Z M 303.261719 168.890625 L 270.800781 168.890625 L 270.800781 137.585938 L 334.570312 137.585938 Z M 303.261719 168.890625 " fill-opacity="1" fill-rule="nonzero"/><g clip-path="url(#f02b4051f5)"><path fill="#000000" d="M 365.515625 174.664062 L 368.203125 174.664062 L 368.203125 335.875 L 365.515625 335.875 Z M 365.515625 174.664062 " fill-opacity="1" fill-rule="nonzero"/></g><g clip-path="url(#bca21e4449)"><path fill="#000000" d="M 39.285156 245.375 L 6.816406 277.84375 L 6.816406 344.671875 L 7.714844 344.671875 L 8.027344 344.984375 L 8.34375 344.671875 L 73.644531 344.671875 L 106.113281 312.203125 L 106.113281 245.375 Z M 39.652344 246.273438 L 39.914062 246.273438 L 39.914062 277.574219 L 8.351562 277.574219 Z M 7.976562 343.765625 L 7.714844 343.765625 L 7.714844 278.472656 L 39.914062 278.472656 L 39.914062 311.828125 Z M 73.007812 343.765625 L 9.238281 343.765625 L 40.542969 312.464844 L 73.007812 312.464844 Z M 73.007812 311.566406 L 40.808594 311.566406 L 40.808594 278.472656 L 73.007812 278.472656 Z M 73.269531 277.574219 L 40.808594 277.574219 L 40.808594 246.273438 L 104.578125 246.273438 Z M 73.269531 277.574219 " fill-opacity="1" fill-rule="nonzero"/></g><g clip-path="url(#7065bba96c)"><path fill="#000000" d="M 8.027344 236.292969 L 8.34375 235.976562 L 73.636719 235.976562 L 106.105469 203.507812 L 106.105469 27.996094 L 58.238281 27.996094 L 58.238281 1.035156 L 130.867188 1.035156 L 130.867188 0.136719 L 57.339844 0.136719 L 57.339844 27.996094 L 39.285156 27.996094 L 6.816406 60.464844 L 6.816406 235.976562 L 7.714844 235.976562 Z M 40.808594 28.894531 L 57.339844 28.894531 L 57.339844 44.390625 L 58.238281 44.390625 L 58.238281 28.894531 L 104.578125 28.894531 L 73.277344 60.195312 L 40.808594 60.195312 Z M 40.808594 61.089844 L 73.007812 61.089844 L 73.007812 202.871094 L 40.808594 202.871094 Z M 73.007812 203.777344 L 73.007812 235.082031 L 9.238281 235.082031 L 40.542969 203.777344 Z M 39.652344 28.894531 L 39.914062 28.894531 L 39.914062 60.195312 L 8.351562 60.195312 Z M 7.714844 61.089844 L 39.914062 61.089844 L 39.914062 203.140625 L 7.976562 235.082031 L 7.714844 235.082031 Z M 7.714844 61.089844 " fill-opacity="1" fill-rule="nonzero"/></g><path fill="#000000" d="M 121.816406 277.84375 L 121.816406 344.671875 L 122.714844 344.671875 L 123.027344 344.984375 L 123.34375 344.671875 L 188.636719 344.671875 L 221.105469 312.203125 L 221.105469 245.375 L 154.277344 245.375 Z M 122.964844 343.765625 L 122.707031 343.765625 L 122.707031 278.472656 L 154.90625 278.472656 L 154.90625 311.828125 Z M 155.808594 246.273438 L 219.578125 246.273438 L 188.277344 277.574219 L 155.820312 277.574219 L 155.820312 246.273438 Z M 155.808594 278.472656 L 188.007812 278.472656 L 188.007812 311.566406 L 155.808594 311.566406 Z M 188.007812 312.464844 L 188.007812 343.765625 L 124.238281 343.765625 L 155.542969 312.464844 Z M 154.914062 246.273438 L 154.914062 277.574219 L 123.351562 277.574219 L 154.652344 246.273438 Z M 154.914062 246.273438 " fill-opacity="1" fill-rule="nonzero"/><path fill="#000000" d="M 336.09375 27.996094 L 269.269531 27.996094 L 236.800781 60.464844 L 236.800781 127.292969 L 237.695312 127.292969 L 238.011719 127.605469 L 238.324219 127.292969 L 303.617188 127.292969 L 336.085938 94.824219 L 336.085938 27.996094 Z M 269.644531 28.894531 L 269.90625 28.894531 L 269.90625 60.195312 L 238.34375 60.195312 Z M 237.964844 126.386719 L 237.707031 126.386719 L 237.707031 61.089844 L 269.90625 61.089844 L 269.90625 94.445312 Z M 303 126.386719 L 239.230469 126.386719 L 270.53125 95.082031 L 302.992188 95.082031 L 302.992188 126.386719 Z M 303 94.1875 L 270.800781 94.1875 L 270.800781 61.089844 L 303 61.089844 Z M 303.261719 60.195312 L 270.800781 60.195312 L 270.800781 28.894531 L 334.570312 28.894531 Z M 303.261719 60.195312 " fill-opacity="1" fill-rule="nonzero"/><path fill="#000000" d="M 123.039062 88.078125 C 123.039062 109.058594 140.105469 126.125 161.085938 126.125 C 172.753906 126.125 183.210938 120.84375 190.199219 112.539062 L 209.480469 93.460938 L 209.589844 93.351562 C 210.261719 92.726562 210.898438 92.070312 211.515625 91.398438 C 218 84.570312 221.984375 75.359375 221.984375 65.226562 C 221.984375 44.246094 204.914062 27.179688 183.9375 27.179688 C 173.917969 27.179688 164.796875 31.082031 158 37.429688 C 157.910156 37.511719 157.820312 37.582031 157.730469 37.664062 L 157.398438 37.996094 C 157.109375 38.273438 156.832031 38.5625 156.554688 38.847656 L 154.117188 41.304688 L 134.597656 60.796875 C 134.339844 61.046875 134.085938 61.296875 133.835938 61.558594 L 132.976562 62.417969 L 132.992188 62.4375 C 126.824219 69.21875 123.039062 78.214844 123.039062 88.078125 Z M 161.09375 50.929688 C 181.578125 50.929688 198.242188 67.59375 198.242188 88.078125 C 198.242188 92.355469 197.507812 96.472656 196.171875 100.304688 C 192.339844 101.640625 188.222656 102.382812 183.945312 102.382812 C 163.460938 102.382812 146.796875 85.71875 146.796875 65.234375 C 146.796875 60.957031 147.53125 56.839844 148.867188 53.011719 C 152.699219 51.664062 156.804688 50.929688 161.09375 50.929688 Z M 134.445312 62.230469 L 135.261719 61.414062 C 138.824219 57.960938 143.074219 55.21875 147.785156 53.40625 C 146.5625 57.128906 145.890625 61.101562 145.890625 65.234375 C 145.890625 86.214844 162.957031 103.28125 183.9375 103.28125 C 188.0625 103.28125 192.035156 102.609375 195.765625 101.390625 C 190.402344 115.316406 176.886719 125.238281 161.09375 125.238281 C 140.609375 125.238281 123.945312 108.574219 123.945312 88.089844 C 123.933594 78.042969 127.953125 68.921875 134.445312 62.230469 Z M 134.445312 62.230469 " fill-opacity="1" fill-rule="nonzero"/><path fill="#000000" d="M 221.105469 136.683594 L 154.277344 136.683594 L 121.808594 169.148438 L 121.808594 235.976562 L 122.707031 235.976562 L 123.019531 236.292969 L 123.332031 235.976562 L 188.628906 235.976562 L 221.09375 203.507812 L 221.09375 136.683594 Z M 154.652344 137.578125 L 154.914062 137.578125 L 154.914062 168.878906 L 123.351562 168.878906 Z M 122.976562 235.082031 L 122.714844 235.082031 L 122.714844 169.785156 L 154.914062 169.785156 L 154.914062 203.140625 Z M 188.007812 235.082031 L 124.238281 235.082031 L 155.542969 203.777344 L 188 203.777344 L 188 235.082031 Z M 188.007812 202.882812 L 155.808594 202.882812 L 155.808594 169.785156 L 188.007812 169.785156 Z M 188.269531 168.890625 L 155.808594 168.890625 L 155.808594 137.585938 L 219.578125 137.585938 Z M 188.269531 168.890625 " fill-opacity="1" fill-rule="nonzero"/><path fill="#000000" d="M 236.808594 277.84375 L 236.808594 344.671875 L 237.707031 344.671875 L 238.019531 344.984375 L 238.332031 344.671875 L 303.628906 344.671875 L 336.09375 312.203125 L 336.09375 245.375 L 269.269531 245.375 Z M 237.964844 343.765625 L 237.707031 343.765625 L 237.707031 278.472656 L 269.90625 278.472656 L 269.90625 311.828125 Z M 270.800781 246.273438 L 334.570312 246.273438 L 303.269531 277.574219 L 270.808594 277.574219 L 270.808594 246.273438 Z M 270.800781 278.472656 L 303 278.472656 L 303 311.566406 L 270.800781 311.566406 Z M 303 312.464844 L 303 343.765625 L 239.230469 343.765625 L 270.53125 312.464844 Z M 269.90625 246.273438 L 269.90625 277.574219 L 238.34375 277.574219 L 269.644531 246.273438 Z M 269.90625 246.273438 " fill-opacity="1" fill-rule="nonzero"/></svg>